<?xml version="1.0" standalone="no"?>
<!DOCTYPE svg PUBLIC "-//W3C//DTD SVG 20010904//EN"
 "http://www.w3.org/TR/2001/REC-SVG-20010904/DTD/svg10.dtd">
<svg version="1.0" xmlns="http://www.w3.org/2000/svg"
 width="408.000000pt" height="597.000000pt" viewBox="0 0 408.000000 597.000000"
 preserveAspectRatio="xMidYMid meet">
<metadata>
Created by potrace 1.10, written by Peter Selinger 2001-2011
</metadata>
<g transform="translate(0.000000,597.000000) scale(0.100000,-0.100000)"
fill="#ffffff" stroke="none">
<path d="M1945 5750 c-101 -15 -233 -108 -289 -204 -28 -47 -56 -137 -56 -177
0 -40 -30 -54 -61 -31 -77 59 -256 77 -369 38 -141 -49 -256 -185 -280 -329
-5 -34 -10 -144 -10 -245 0 -155 -2 -184 -15 -189 -9 -3 -23 1 -33 9 -30 25
-85 45 -160 58 -209 38 -410 -86 -483 -297 -18 -54 -19 -99 -19 -1282 0 -1158
1 -1233 19 -1346 42 -263 117 -471 249 -693 246 -412 702 -740 1177 -846 315
-70 649 -57 960 36 345 105 689 342 911 629 102 133 237 361 267 455 3 10 13
37 22 59 25 65 72 234 89 320 30 147 37 419 34 1275 l-3 835 -27 47 c-22 36
-41 53 -84 74 l-56 27 -81 -17 c-141 -31 -268 -99 -379 -204 -37 -35 -63 -52
-73 -49 -13 6 -15 76 -15 605 0 644 -1 655 -54 760 -34 68 -132 157 -213 194
-62 28 -77 31 -168 31 -95 1 -104 -1 -180 -37 -74 -34 -81 -36 -92 -20 -8 11
-13 48 -13 91 0 126 -45 228 -137 315 -105 97 -223 131 -378 108z m189 -170
c65 -27 129 -95 155 -164 21 -57 21 -59 21 -1136 0 -1189 4 -1110 -61 -1110
-37 0 -104 -33 -113 -55 -26 -69 27 -122 105 -103 55 13 229 13 291 0 55 -11
85 0 107 39 30 54 -32 119 -112 119 -13 0 -32 6 -43 14 -19 14 -19 35 -19 863
0 708 2 856 14 898 21 71 108 157 181 179 67 20 103 20 167 1 65 -19 131 -78
166 -147 l27 -55 -2 -1204 -3 -1204 -115 -22 c-199 -38 -330 -95 -487 -211
-269 -201 -428 -494 -449 -828 -6 -105 -5 -113 15 -133 25 -25 77 -28 107 -6
18 12 23 29 28 97 24 276 119 482 308 666 36 35 87 79 114 98 116 83 290 151
444 174 87 13 121 30 164 83 l31 39 5 416 5 417 27 73 c54 146 136 256 248
331 78 52 188 93 237 89 l38 -3 3 -920 c3 -974 2 -999 -45 -1210 -44 -202
-160 -459 -277 -615 -297 -398 -644 -614 -1131 -706 -121 -23 -374 -23 -510 0
-478 81 -891 345 -1156 740 -174 259 -263 514 -289 831 -7 85 -10 520 -8 1260
l3 1130 27 55 c35 72 80 117 147 148 45 21 64 24 120 20 82 -6 136 -33 189
-93 74 -84 72 -67 72 -731 l0 -592 -27 -10 c-16 -6 -46 -14 -67 -18 -72 -13
-110 -85 -68 -130 17 -18 32 -19 243 -18 123 1 227 2 230 3 9 2 29 50 29 70 0
36 -33 62 -105 80 l-70 17 -3 955 c-2 869 -1 958 14 999 70 190 308 245 449
105 21 -21 49 -63 62 -92 l25 -54 2 -861 c1 -571 -2 -868 -9 -881 -7 -14 -27
-24 -68 -32 -63 -13 -92 -35 -102 -77 -6 -22 -1 -33 24 -59 27 -26 37 -30 64
-25 130 24 169 26 249 15 46 -7 96 -12 111 -12 66 0 94 86 42 130 -15 13 -46
25 -76 29 -37 5 -54 13 -65 29 -13 20 -14 162 -12 1071 l3 1049 25 49 c30 59
97 120 153 140 61 21 147 20 201 -4z"/>
</g>
</svg>
