<?xml version="1.0" standalone="no"?>
<!DOCTYPE svg PUBLIC "-//W3C//DTD SVG 20010904//EN"
 "http://www.w3.org/TR/2001/REC-SVG-20010904/DTD/svg10.dtd">
<svg version="1.0" xmlns="http://www.w3.org/2000/svg"
 width="387.000000pt" height="444.000000pt" viewBox="0 0 387.000000 444.000000"
 preserveAspectRatio="xMidYMid meet">
<metadata>
Created by potrace 1.10, written by Peter Selinger 2001-2011
</metadata>
<g transform="translate(0.000000,444.000000) scale(0.100000,-0.100000)"
fill="#ffffff" stroke="none">
<path d="M2071 4119 c-107 -18 -226 -101 -307 -214 l-21 -30 -44 31 c-89 64
-142 79 -269 78 -109 0 -119 -2 -182 -32 -46 -23 -85 -52 -127 -98 -34 -35
-61 -69 -61 -74 0 -20 -43 -9 -80 20 -87 69 -217 101 -325 81 -142 -26 -254
-107 -321 -233 l-39 -73 0 -995 0 -995 23 -95 c50 -214 121 -393 215 -545 167
-271 392 -480 677 -627 394 -203 859 -233 1298 -82 368 126 696 403 895 755
56 100 113 224 127 280 5 19 19 68 30 109 50 184 53 232 57 951 5 723 3 751
-46 847 -42 81 -117 149 -201 182 -66 25 -70 33 -70 135 0 121 -15 197 -52
268 -39 72 -132 160 -207 195 -50 23 -68 26 -176 26 -131 0 -170 -11 -261 -76
-44 -31 -65 -30 -81 5 -33 72 -155 166 -253 195 -54 16 -139 20 -199 11z m160
-161 c63 -20 130 -77 163 -138 29 -53 30 -60 34 -215 2 -100 0 -170 -7 -187
l-11 -28 -259 0 c-247 0 -261 1 -271 19 -6 11 -10 88 -10 179 0 157 0 159 31
220 17 34 49 77 71 97 68 57 173 79 259 53z m-679 -149 c60 -31 105 -76 135
-137 25 -50 28 -68 28 -153 0 -131 3 -129 -153 -129 -105 0 -132 -3 -167 -20
-57 -27 -81 -56 -96 -113 -11 -40 -11 -59 4 -127 17 -85 61 -188 109 -258 46
-68 143 -166 203 -207 68 -47 70 -66 12 -123 -76 -75 -182 -100 -280 -66 -59
20 -135 88 -165 146 -22 45 -22 48 -22 524 l0 479 24 50 c33 72 111 135 191
156 43 11 134 0 177 -22z m1435 -5 c59 -28 111 -87 136 -152 21 -52 24 -231 5
-250 -9 -9 -82 -12 -269 -12 -225 0 -258 2 -263 16 -3 9 -6 61 -6 117 0 115
17 167 73 225 86 91 210 112 324 56z m-2152 -98 c58 -27 104 -73 137 -136 23
-45 23 -46 23 -420 l0 -375 -25 -48 c-89 -175 -309 -210 -445 -73 -84 85 -85
94 -85 500 l0 348 29 62 c16 33 43 74 59 89 81 78 209 100 307 53z m2479 -490
c52 -26 104 -79 127 -130 18 -39 19 -79 19 -723 0 -766 -3 -801 -75 -1017 -83
-249 -188 -419 -370 -602 -198 -199 -410 -322 -685 -397 -143 -40 -221 -50
-380 -50 -248 0 -494 63 -716 184 -153 82 -357 259 -469 405 -124 161 -240
400 -278 574 -43 195 -47 244 -47 637 0 211 4 384 9 387 5 3 44 -11 87 -31 76
-35 83 -37 184 -36 119 0 179 19 261 79 26 19 51 34 57 34 5 0 22 -17 38 -37
54 -72 114 -120 194 -154 47 -21 71 -24 170 -24 113 0 116 1 188 38 40 21 90
55 111 77 21 22 44 40 51 40 7 0 34 -20 60 -44 26 -24 70 -56 99 -70 40 -21
51 -32 51 -50 0 -13 -7 -29 -15 -36 -26 -22 -101 -132 -142 -210 -70 -134
-109 -267 -121 -422 -11 -137 5 -178 69 -178 54 0 70 26 80 130 16 172 61 315
143 455 48 81 206 250 281 300 153 101 320 160 493 172 114 8 142 24 142 82 0
26 -7 44 -21 57 -20 18 -47 19 -498 24 -469 5 -477 6 -540 29 -194 71 -339
216 -401 401 -27 79 -26 108 3 120 13 5 388 8 912 7 858 -2 891 -3 929 -21z
m-1084 -710 c0 -40 -89 -59 -161 -35 -86 29 -61 49 62 49 80 0 99 -3 99 -14z"/>
</g>
</svg>
