<?xml version="1.0" standalone="no"?>
<!DOCTYPE svg PUBLIC "-//W3C//DTD SVG 20010904//EN"
 "http://www.w3.org/TR/2001/REC-SVG-20010904/DTD/svg10.dtd">
<svg version="1.0" xmlns="http://www.w3.org/2000/svg"
 width="432.000000pt" height="591.000000pt" viewBox="0 0 432.000000 591.000000"
 preserveAspectRatio="xMidYMid meet">
<metadata>
Created by potrace 1.10, written by Peter Selinger 2001-2011
</metadata>
<g transform="translate(0.000000,591.000000) scale(0.100000,-0.100000)"
fill="#ffffff" stroke="none">
<path d="M2090 5747 c-120 -28 -236 -123 -296 -243 l-29 -59 -3 -840 c-1 -489
-6 -843 -12 -849 -5 -5 -26 0 -52 14 -61 32 -164 60 -221 60 -94 0 -202 -41
-284 -107 -45 -36 -123 -147 -123 -175 0 -30 -18 -29 -82 6 -35 20 -95 43
-133 52 -231 54 -472 -103 -515 -335 -13 -72 -13 -1283 0 -1426 13 -141 39
-258 99 -455 20 -65 139 -294 203 -391 181 -273 452 -507 751 -648 607 -287
1309 -228 1862 157 128 90 310 264 412 397 82 107 219 348 258 455 32 87 84
276 99 361 31 166 34 290 33 1194 l-2 910 -24 42 c-28 49 -63 77 -118 93 -55
17 -155 -7 -280 -66 -51 -24 -98 -44 -104 -44 -15 0 -7 40 53 260 28 102 56
208 63 235 14 51 41 153 70 260 80 292 84 381 23 513 -25 54 -126 160 -178
186 -54 28 -160 56 -210 56 -57 0 -169 -32 -223 -64 -60 -35 -139 -122 -169
-186 -14 -30 -39 -109 -57 -175 -17 -66 -38 -142 -45 -170 -8 -27 -21 -77 -30
-110 -98 -365 -146 -543 -150 -555 -3 -8 -10 -34 -16 -58 -6 -23 -15 -40 -20
-37 -6 4 -10 265 -10 683 0 728 0 736 -52 839 -34 68 -124 152 -203 189 -83
40 -195 52 -285 31z m212 -170 c63 -28 106 -70 139 -135 l24 -47 3 -1097 c2
-990 1 -1098 -14 -1112 -8 -9 -26 -16 -40 -16 -35 0 -103 -30 -114 -51 -19
-34 -11 -66 22 -94 21 -18 38 -25 52 -21 68 20 189 27 263 15 105 -16 121 -15
149 12 50 47 22 108 -58 129 -101 27 -93 18 -96 93 -2 45 4 92 17 140 11 39
30 108 42 152 12 44 30 112 41 150 34 122 127 472 173 650 7 28 42 160 79 295
36 135 73 272 82 305 23 86 39 119 78 162 55 62 117 88 206 88 91 0 155 -28
205 -90 78 -96 88 -159 50 -301 -44 -158 -126 -467 -132 -494 -4 -21 -112
-424 -168 -630 -9 -30 -37 -120 -63 -200 l-47 -145 -5 -403 c-4 -335 -7 -404
-19 -412 -8 -4 -64 -18 -123 -29 -60 -11 -117 -25 -128 -31 -10 -5 -26 -10
-35 -10 -8 0 -57 -20 -108 -44 -95 -44 -222 -130 -299 -201 -84 -78 -188 -216
-238 -315 -90 -176 -150 -503 -105 -567 29 -41 101 -37 125 7 7 12 14 45 16
73 13 172 37 265 106 402 59 119 100 175 205 276 115 112 223 177 383 229 48
16 117 32 152 35 83 9 156 44 188 91 l25 37 5 416 c6 400 7 419 29 481 59 168
180 310 326 381 96 46 180 62 196 38 12 -20 11 -1767 -1 -1909 -33 -377 -222
-771 -503 -1053 -259 -258 -561 -414 -937 -482 -113 -21 -379 -24 -485 -6
-239 40 -458 118 -640 228 -283 171 -505 407 -652 695 -53 103 -61 122 -105
253 -59 179 -91 394 -86 580 3 103 4 110 24 113 12 2 42 -8 68 -22 158 -84
354 -50 502 86 l44 41 44 -41 c86 -79 173 -120 276 -129 174 -15 340 78 426
239 l39 73 5 1460 c6 1660 -3 1515 91 1606 82 80 198 101 301 56z m-698 -1937
c66 -34 112 -91 136 -168 19 -60 20 -94 20 -491 0 -473 -2 -493 -63 -573 -52
-69 -116 -102 -203 -106 -40 -2 -88 1 -107 7 -47 16 -121 82 -155 139 l-27 47
0 490 c0 483 0 491 22 530 29 53 88 109 143 135 62 29 166 24 234 -10z m-726
-204 c55 -29 114 -88 138 -141 24 -50 24 -53 23 -415 0 -413 -1 -417 -77 -495
-60 -62 -114 -85 -198 -85 -92 0 -160 32 -215 102 -65 83 -69 109 -69 473 0
344 5 390 53 461 36 51 95 95 156 115 40 13 152 4 189 -15z"/>
</g>
</svg>
