<?xml version="1.0" standalone="no"?>
<!DOCTYPE svg PUBLIC "-//W3C//DTD SVG 20010904//EN"
 "http://www.w3.org/TR/2001/REC-SVG-20010904/DTD/svg10.dtd">
<svg version="1.0" xmlns="http://www.w3.org/2000/svg"
 width="900.000000pt" height="72.000000pt" viewBox="0 0 900.000000 72.000000"
 preserveAspectRatio="xMidYMid meet">
<metadata>
Created by potrace 1.10, written by Peter Selinger 2001-2011
</metadata>
<g transform="translate(0.000000,72.000000) scale(0.100000,-0.100000)"
fill="#ffffff" stroke="none">
<path d="M6452 668 c-7 -7 -12 -27 -12 -45 0 -25 4 -33 18 -33 27 0 42 20 42
57 0 25 -4 33 -18 33 -10 0 -23 -5 -30 -12z"/>
<path d="M1561 651 c-17 -11 -5 -31 19 -31 28 0 31 -13 16 -66 -14 -50 -30
-126 -47 -224 -13 -72 -30 -104 -56 -108 -22 -3 -37 -27 -27 -43 3 -5 21 -9
40 -9 31 0 37 4 54 43 11 23 20 54 20 68 0 25 27 59 46 59 21 -1 78 -95 79
-130 0 -33 2 -35 39 -38 81 -7 117 26 57 51 -16 7 -47 35 -69 64 -23 28 -46
54 -52 58 -5 3 -10 13 -10 20 0 20 104 96 143 104 23 5 32 12 32 26 0 17 -7
20 -55 20 -52 0 -56 -2 -70 -32 -13 -29 -84 -92 -102 -93 -12 0 -10 65 3 97
20 52 31 156 17 165 -17 10 -59 10 -77 -1z"/>
<path d="M5454 625 c-91 -41 -129 -152 -68 -198 13 -10 58 -27 100 -37 103
-27 123 -54 85 -117 -28 -45 -83 -68 -158 -64 -32 2 -83 49 -83 76 0 13 -4 26
-9 29 -14 9 -29 -15 -43 -67 -10 -38 -10 -49 1 -59 11 -10 14 -10 18 0 6 16
33 15 57 -3 29 -22 139 -20 179 3 64 36 97 82 97 137 0 56 -27 79 -115 100
-84 21 -95 25 -111 51 -11 16 -10 25 3 52 23 48 54 65 120 65 47 0 59 -4 74
-24 10 -13 19 -33 21 -44 5 -36 32 -23 39 20 4 22 9 47 11 55 6 27 -169 47
-218 25z"/>
<path d="M123 624 c-20 -9 -15 -34 6 -34 28 0 35 -17 23 -59 -11 -38 -28 -121
-43 -211 -12 -65 -32 -100 -58 -100 -21 0 -36 -29 -23 -42 5 -5 42 -8 83 -6
67 3 74 5 77 25 2 16 -3 22 -20 25 -28 4 -35 45 -18 107 12 46 36 58 93 47 44
-8 66 -34 111 -129 31 -67 40 -78 59 -75 23 3 39 48 17 48 -6 0 -21 21 -33 48
-12 26 -30 58 -40 72 -24 34 -22 58 7 66 13 3 36 19 52 35 22 23 28 38 28 79
1 41 -4 54 -26 77 -27 27 -31 27 -155 30 -71 1 -134 0 -140 -3z m247 -51 c49
-34 53 -67 13 -105 -47 -44 -164 -73 -201 -49 -13 8 -8 37 24 159 5 19 134 16
164 -5z"/>
<path d="M2493 623 c-20 -8 -15 -33 6 -33 28 0 35 -17 23 -59 -11 -38 -28
-121 -43 -211 -12 -65 -32 -100 -58 -100 -20 0 -35 -25 -25 -41 6 -10 173 -13
198 -3 9 3 16 14 16 25 0 14 -9 18 -47 21 l-48 3 0 54 c1 65 18 81 87 81 77 0
134 20 175 62 33 34 37 43 37 92 1 62 -20 90 -77 107 -33 9 -222 11 -244 2z
m256 -59 c43 -36 41 -71 -5 -117 -33 -32 -42 -36 -111 -42 -48 -5 -78 -4 -85
3 -10 10 0 67 28 170 2 8 26 12 73 12 60 0 74 -3 100 -26z"/>
<path d="M705 512 c-32 -11 -66 -33 -96 -62 -83 -83 -89 -183 -14 -249 31 -27
43 -31 96 -31 161 0 282 168 204 283 -44 64 -110 85 -190 59z m130 -57 c28
-18 44 -72 33 -114 -13 -47 -43 -85 -90 -111 -56 -31 -108 -30 -153 4 -32 25
-35 31 -35 78 0 56 21 97 67 132 49 36 131 42 178 11z"/>
<path d="M1186 512 c-146 -49 -209 -225 -113 -313 29 -26 38 -29 103 -29 48 0
85 6 110 18 57 26 84 45 84 59 0 15 -46 17 -55 3 -10 -15 -69 -38 -107 -41
-60 -4 -75 1 -107 30 -25 24 -31 37 -31 73 0 78 63 152 139 162 66 9 116 -8
131 -44 23 -54 60 -31 60 38 0 42 -1 43 -28 37 -15 -3 -47 1 -71 10 -51 18
-52 18 -115 -3z"/>
<path d="M3061 511 c-61 -16 -84 -32 -63 -45 5 -3 37 -1 71 5 35 5 75 6 94 1
29 -8 32 -12 32 -48 l0 -39 -91 -1 c-79 -1 -95 -5 -131 -27 -53 -34 -73 -63
-73 -107 0 -58 31 -80 111 -80 42 0 72 5 85 15 25 19 58 19 74 -1 20 -24 74
-15 78 14 2 14 -2 22 -12 22 -24 0 -28 17 -17 68 40 184 39 190 -32 223 -49
22 -44 22 -126 0z m100 -171 c62 -34 -40 -128 -143 -133 -40 -1 -78 24 -78 52
2 61 154 117 221 81z"/>
<path d="M3600 523 c-8 -3 -34 -14 -58 -25 l-43 -20 -20 21 c-20 21 -44 26
-73 15 -23 -9 -20 -44 3 -44 30 0 33 -15 17 -72 -16 -59 -32 -135 -46 -221
-12 -73 -24 -95 -55 -103 -16 -4 -25 -13 -25 -25 0 -17 8 -19 85 -19 68 0 87
3 92 15 7 20 -1 28 -30 31 -12 1 -25 3 -29 3 -20 2 1 133 23 147 6 3 19 -2 31
-13 29 -26 151 -25 193 2 72 46 105 102 105 177 -1 64 -25 97 -88 121 -44 18
-57 19 -82 10z m68 -54 c87 -30 82 -143 -10 -209 -101 -73 -229 -6 -196 103
26 84 125 135 206 106z"/>
<path d="M4015 512 c-64 -22 -84 -37 -123 -91 -28 -38 -32 -52 -32 -106 0 -60
2 -64 41 -104 41 -41 42 -41 114 -41 79 0 160 26 171 55 9 23 -3 30 -29 17
-109 -53 -216 -40 -250 29 -27 57 -21 59 149 59 145 0 154 1 164 21 16 28 3
92 -23 122 -21 23 -94 58 -120 56 -6 0 -35 -8 -62 -17z m149 -72 c18 -18 27
-34 23 -44 -5 -14 -27 -16 -137 -16 -147 0 -157 7 -92 58 63 50 156 51 206 2z"/>
<path d="M4624 512 c-23 -9 -48 -22 -55 -28 -33 -26 -40 -25 -50 5 -10 28 -15
31 -54 31 -43 0 -73 -19 -60 -40 3 -5 17 -10 31 -10 21 0 24 -5 24 -33 0 -19
-7 -56 -15 -83 -8 -27 -15 -61 -15 -76 0 -34 -24 -58 -59 -58 -16 0 -34 -7
-42 -16 -22 -27 7 -34 137 -34 94 0 124 3 134 15 20 24 1 35 -65 35 -44 0 -64
4 -68 14 -3 7 3 44 13 82 16 62 22 72 66 106 64 50 108 62 148 43 37 -19 36
-19 36 10 0 17 -9 29 -30 40 -16 8 -30 15 -32 14 -2 0 -22 -8 -44 -17z"/>
<path d="M5926 512 c-146 -49 -209 -225 -113 -313 28 -26 38 -29 103 -29 96 0
205 48 191 84 -7 16 -30 13 -57 -9 -33 -26 -96 -41 -156 -37 -12 1 -36 15 -53
31 -25 24 -31 37 -31 73 0 78 63 152 139 162 66 9 116 -8 131 -44 23 -54 60
-31 60 38 0 42 -1 43 -28 37 -15 -3 -47 1 -71 10 -51 18 -52 18 -115 -3z"/>
<path d="M6857 510 c-57 -22 -86 -54 -87 -96 0 -38 26 -59 90 -68 105 -17 143
-44 120 -86 -35 -66 -220 -66 -220 0 0 22 -24 32 -39 17 -6 -6 -11 -31 -11
-55 0 -43 0 -43 29 -37 17 3 32 2 36 -4 3 -6 39 -11 83 -11 67 1 82 4 115 28
54 37 74 73 61 109 -13 38 -77 73 -136 73 -92 0 -110 68 -24 91 41 11 102 5
124 -13 6 -6 12 -19 12 -29 0 -32 29 -21 44 16 17 41 11 68 -13 60 -9 -2 -38
2 -65 10 -60 18 -60 18 -119 -5z"/>
<path d="M7340 514 c-131 -46 -128 -150 5 -172 89 -15 115 -28 115 -54 0 -31
-9 -42 -49 -62 -69 -36 -160 -15 -182 40 -12 34 -32 26 -42 -19 -11 -45 3 -66
37 -60 13 3 27 0 30 -6 4 -6 38 -11 78 -11 60 0 78 4 114 27 60 38 82 95 51
133 -20 26 -82 50 -129 50 -65 0 -98 39 -60 72 44 39 145 31 171 -13 21 -38
38 -36 47 4 13 49 12 49 -41 63 -86 24 -99 24 -145 8z"/>
<path d="M7820 513 c-128 -44 -198 -168 -151 -265 27 -57 64 -78 135 -78 158
0 278 169 201 283 -44 63 -112 86 -185 60z m125 -58 c30 -19 46 -78 33 -118
-39 -112 -163 -164 -244 -102 -31 24 -34 31 -34 77 0 56 21 97 67 132 49 36
131 42 178 11z"/>
<path d="M8415 512 c-23 -9 -55 -27 -72 -39 l-30 -22 -9 32 c-8 26 -15 33 -41
35 -33 3 -73 -12 -73 -28 0 -5 15 -13 33 -18 23 -6 32 -14 30 -28 -3 -42 -24
-143 -36 -180 -12 -35 -18 -40 -53 -44 -31 -4 -39 -9 -39 -25 0 -19 8 -20 124
-23 125 -3 156 4 144 34 -3 9 -21 14 -53 14 -77 0 -81 3 -74 69 9 77 24 102
86 145 55 37 84 43 146 30 26 -5 32 -3 32 10 0 9 -15 25 -32 36 -39 23 -33 23
-83 2z"/>
<path d="M8760 514 c-50 -17 -100 -67 -100 -99 0 -35 39 -63 100 -71 103 -13
143 -43 117 -85 -40 -66 -217 -65 -217 1 0 30 -21 36 -42 10 -22 -27 -25 -90
-4 -90 8 0 18 5 21 10 4 7 14 5 28 -5 30 -21 148 -20 190 1 66 33 94 93 67
143 -13 24 -81 51 -129 51 -23 0 -48 8 -62 19 -22 18 -22 20 -7 43 32 48 167
46 178 -2 8 -33 26 -36 45 -6 23 35 16 72 -12 69 -12 -2 -41 4 -64 12 -50 18
-52 18 -109 -1z"/>
<path d="M6330 505 c-18 -22 -3 -35 40 -35 21 0 41 -4 44 -8 3 -5 -2 -40 -11
-78 -8 -38 -18 -86 -20 -106 -7 -49 -17 -56 -88 -60 -52 -3 -60 -6 -60 -23 0
-19 8 -20 140 -23 107 -2 145 1 159 11 30 22 10 37 -48 37 -68 0 -78 11 -60
62 8 22 14 53 14 69 0 16 7 49 16 75 8 25 13 57 10 70 -6 22 -12 24 -65 24
-39 0 -63 -5 -71 -15z"/>
</g>
</svg>
